<?xml version="1.0" encoding="UTF-8" standalone="no"?>
<!-- Created with Inkscape (http://www.inkscape.org/) -->

<svg
   width="180"
   height="180"
   viewBox="0 0 47.625 47.625"
   version="1.1"
   id="svg5"
   inkscape:export-filename="D:\projects\unity\subatomic-canvas\Assets\SubatomicCanvas\Images\SubatomicCanvas\Camera.png"
   inkscape:export-xdpi="96"
   inkscape:export-ydpi="96"
   inkscape:version="1.1 (c68e22c387, 2021-05-23)"
   sodipodi:docname="Camera.svg"
   xmlns:inkscape="http://www.inkscape.org/namespaces/inkscape"
   xmlns:sodipodi="http://sodipodi.sourceforge.net/DTD/sodipodi-0.dtd"
   xmlns="http://www.w3.org/2000/svg"
   xmlns:svg="http://www.w3.org/2000/svg">
  <sodipodi:namedview
     id="namedview7"
     pagecolor="#ffffff"
     bordercolor="#999999"
     borderopacity="1"
     inkscape:pageshadow="0"
     inkscape:pageopacity="0"
     inkscape:pagecheckerboard="true"
     inkscape:document-units="mm"
     showgrid="false"
     units="px"
     width="180px"
     inkscape:zoom="3.4294679"
     inkscape:cx="56.714338"
     inkscape:cy="52.048891"
     inkscape:window-width="2327"
     inkscape:window-height="1195"
     inkscape:window-x="1065"
     inkscape:window-y="730"
     inkscape:window-maximized="0"
     inkscape:current-layer="layer2" />
  <defs
     id="defs2" />
  <g
     inkscape:label="レイヤー 1"
     inkscape:groupmode="layer"
     id="layer1"
     style="display:none">
    <circle
       style="fill:#ffffff;stroke-width:6.93053;stroke-linecap:round;stroke-linejoin:round"
       id="path870"
       cx="23.8125"
       cy="23.8125"
       r="21.166666" />
  </g>
  <g
     inkscape:groupmode="layer"
     id="layer2"
     inkscape:label="マスク"
     style="display:inline">
    <path
       id="rect926"
       style="fill:#ffffff;stroke-width:19.7232;stroke-linecap:round;stroke-linejoin:round"
       d="M 35.341797,50 C 26.842933,50 20,56.842933 20,65.341797 V 134.6582 C 20,143.15707 26.842933,150 35.341797,150 H 144.6582 C 153.15707,150 160,143.15707 160,134.6582 V 65.341797 C 160,56.842933 153.15707,50 144.6582,50 Z M 90,70 a 30,30 0 0 1 30,30 30,30 0 0 1 -30,30 30,30 0 0 1 -30,-30 30,30 0 0 1 30,-30 z"
       transform="scale(0.26458333)" />
    <rect
       style="fill:#ffffff;stroke-width:5.29167;stroke-linecap:round;stroke-linejoin:round"
       id="rect1408"
       width="10.183796"
       height="8.3321962"
       x="27.465387"
       y="9.5665951"
       ry="2.9702654" />
  </g>
</svg>
