<?xml version="1.0" encoding="UTF-8" standalone="no"?>
<!-- Created with Inkscape (http://www.inkscape.org/) -->

<svg
   width="512"
   height="512"
   viewBox="0 0 135.46666 135.46666"
   version="1.1"
   id="svg5"
   inkscape:version="1.1 (c68e22c387, 2021-05-23)"
   sodipodi:docname="circle.svg"
   xmlns:inkscape="http://www.inkscape.org/namespaces/inkscape"
   xmlns:sodipodi="http://sodipodi.sourceforge.net/DTD/sodipodi-0.dtd"
   xmlns="http://www.w3.org/2000/svg"
   xmlns:svg="http://www.w3.org/2000/svg">
  <sodipodi:namedview
     id="namedview7"
     pagecolor="#ffffff"
     bordercolor="#999999"
     borderopacity="1"
     inkscape:pageshadow="0"
     inkscape:pageopacity="0"
     inkscape:pagecheckerboard="true"
     inkscape:document-units="mm"
     showgrid="false"
     units="mm"
     inkscape:zoom="0.8203367"
     inkscape:cx="195.65137"
     inkscape:cy="285.85823"
     inkscape:window-width="2010"
     inkscape:window-height="1081"
     inkscape:window-x="260"
     inkscape:window-y="801"
     inkscape:window-maximized="0"
     inkscape:current-layer="svg5" />
  <defs
     id="defs2" />
  <path
     id="path848"
     style="display:none;fill:#ffffff;fill-opacity:1;stroke:none;stroke-width:32;stroke-linecap:round;stroke-linejoin:round;stroke-miterlimit:4;stroke-dasharray:none;stroke-opacity:1;paint-order:normal"
     d="M 256,0 A 255.99999,255.99999 0 0 0 0,256 255.99999,255.99999 0 0 0 256,512 255.99999,255.99999 0 0 0 512,256 255.99999,255.99999 0 0 0 256,0 Z m 0,32 A 224,224 0 0 1 480,256 224,224 0 0 1 256,480 224,224 0 0 1 32,256 224,224 0 0 1 256,32 Z"
     transform="scale(0.26458333)"
     inkscape:export-filename="D:\projects\geant4\particle-sim-unity\Assets\ParticleSim\Images\CircleFill.png"
     inkscape:export-xdpi="96"
     inkscape:export-ydpi="96"
     inkscape:label="CircleOutline" />
  <circle
     style="display:inline;fill:#ffffff;fill-opacity:0.997653;stroke-width:8.21146;stroke-linecap:round;stroke-linejoin:round"
     id="path844"
     cx="67.73333"
     cy="67.73333"
     inkscape:label="CircleFill"
     r="63.5" />
  <circle
     style="display:none;fill:#ffffff;fill-opacity:0.997653;stroke-width:6.85883;stroke-linecap:round;stroke-linejoin:round"
     id="path1076"
     cx="67.73333"
     cy="67.73333"
     inkscape:label="CircleSimple"
     r="67.73333" />
</svg>
